<?xml version="1.0" encoding="UTF-8" standalone="no"?>
<svg width="352px" height="137px" viewBox="0 0 352 137" version="1.1" xmlns="http://www.w3.org/2000/svg" xmlns:xlink="http://www.w3.org/1999/xlink">
    <!-- Generator: Sketch 48.2 (47327) - http://www.bohemiancoding.com/sketch -->
    <title>Page 1</title>
    <desc>Created with Sketch.</desc>
    <defs></defs>
    <g id="00_00_splash" stroke="none" stroke-width="1" fill="none" fill-rule="evenodd" transform="translate(0.000000, -315.000000)">
        <g id="Page-1" transform="translate(-73.000000, 316.000000)" stroke="#FFFFFF" stroke-width="1.25">
            <path d="M358.659081,58.6695472 C355.672005,61.9719726 358.984318,67.9202274 363.315635,68.5979853 C367.646396,69.2768871 371.762923,66.5035133 374.973114,63.4315828 C373.434065,71.242671 370.539675,78.7683573 366.46866,85.5453642 C370.483064,77.3138945 375.538116,69.6217715 381.465093,62.7252275 C386.005649,68.5659563 389.068762,75.6157822 390.270919,82.9961938 C385.325204,78.3148028 381.672668,72.1978234 379.846122,65.5386377 C385.923507,64.705882 392.342225,67.4603816 396.049708,72.4918045 C392.875592,68.4138182 388.999941,64.9169307 384.657524,62.2139064 C397.300705,64.6223777 408.855507,72.583888 415.845888,83.7042649 C416.164465,82.5866793 415.982421,81.3295385 415.361917,80.3566557 C409.892825,91.2442499 399.625652,99.4471221 388.030334,102.192471 L384.738556,102.627723 C372.924563,112.803242 355.88402,113.153846 340.655591,110.808289 C325.427717,108.463304 309.748064,112.974254 294.887053,106.184093 C293.397955,96.0223 295.84112,85.3040023 301.565517,76.8889375 C304.905026,71.9793394 309.57934,66.4457466 307.536895,60.8315091 C305.839112,56.1672766 300.411091,54.4640167 295.695151,53.3704529 C297.537792,51.2039154 300.429407,52.8265307 302.796534,52.5548556 C302.168815,51.0986771 297.309682,50.0766067 295.872755,49.4880727 C294.435828,48.9001106 296.060349,47.8951987 296.865117,46.5345354 C297.67044,45.1738721 298.522384,46.7724656 296.98278,46.6283348 C295.536973,46.341789 295.485912,46.4475993 295.045232,45 C309.132555,46.8611174 320.518078,61.2707648 319.433029,75.8634355 C324.768918,76.8917972 330.390083,98.379296 333.058582,103.251145 C316.842231,118.154956 290.343167,108.415832 268.677151,110.114516 C255.437886,111.153173 244.539109,108.697802 231.272649,109.262315 C210.594554,110.14197 187.649789,111.584422 167,110.159128" id="Stroke-1"></path>
            <path d="M157.306983,109.170532 C158.021923,108.797853 163.751478,110.693581 164.466976,110.320335 C166.289712,109.369067 168.223339,108.308889 169.173436,106.461944 C170.124089,104.615 169.4554,101.786156 167.452117,101.352215 C169.882804,102.673892 172.324635,98.4723197 170.643995,96.2487252 C168.963356,94.0256979 165.589817,94.0767498 163.035423,95.1295538 C164.631919,93.6853518 163.443881,90.7135631 161.444499,89.9506206 C159.44456,89.1871109 157.219496,89.9120481 155.230702,90.70392 C148.620148,93.3359298 142.307162,96.7410926 136.455014,100.830351 C142.419167,105.667236 149.881185,108.56188 157.49533,108.99185 C127.987176,106.089265 98.1385469,103.193487 68.7981221,107.508509 C58.7661075,108.984476 48.7597259,111.303935 38.6285223,110.966992 C25.6721055,110.536454 12.8221217,105.767071 0,107.708178 C39.6365718,86.883535 88.1851033,89.2324904 127.38034,67.5581163 C143.739272,58.5111497 158.306673,45.3635799 176.351818,40.7031073 C185.503948,38.3394036 195.815698,37.9967885 202.869258,31.6084923 C204.885914,29.781401 207.11878,27.3303418 209.745058,27.966789 C209.450278,30.2856804 209.155497,32.6045718 208.860716,34.9223288 L219.108941,30.0519761 C221.611511,32.1456719 219.697387,37.2139925 216.461487,37.0625385 L221.800416,38.2985621 C221.43598,41.4320152 217.682403,43.6102302 214.847717,42.3327979 C216.005107,44.064025 204.274621,43.9017934 205.432011,45.6324533 C193.172703,50.1704013 180.913395,48.4686708 194.287185,36.5565573 C208.141875,44.3663658 198.745115,47.9014273 205.432011,45.6324533 C208.124601,44.7191913 220.360504,44.1173459 224.133028,43.7463687 C227.436911,43.4219054 230.716276,42.8591998 233.881407,41.841565 C249.475246,36.825998 266.371359,36.0800728 282.33465,39.6962501 C283.97684,40.0683618 285.678098,40.4869875 287.322517,40.1216827 C290.919509,39.3235711 292.687078,35.3392528 294.791221,32.2636585 C298.446167,26.9236282 304.579722,23.4254375 310.961806,23.0414137 C308.552852,20.0945837 312.398931,16.1743639 315.608084,14.1685909 C318.817236,12.1622506 322.539608,8.98455255 319.400668,6.86589808 C317.573474,5.6338452 316.153623,3.7925728 316.797236,1.65917 C319.226251,0.56325556 323.081804,3.26730532 323.567161,5.92540836 C322.914631,3.38529197 321.987939,-0.388011788 324.534532,0.0323156449 C328.582332,1.38746036 328.582332,4.22367786 328.582332,5.92540836 C326.96076,4.64173632 323.63793,5.01214632 323.177649,7.05081946 C322.984286,7.9067899 323.24006,8.78431559 323.750493,9.48145785 C324.757985,10.8564561 329.139573,9.89611285 328.582332,5.92540836 C328.582332,5.92540836 329.694029,9.35439531 328.57063,11.8394891 L325.238885,11.5978433 C324.685544,11.5740191 323.567161,12.1650868 323.009919,13.2995738 C322.062052,15.2299035 322.583073,17.6735885 324.462647,18.6713698 C324.924043,18.9169862 326.704429,17.7569733 326.910608,17.2702783 L328.582332,11.5978433 C323.202168,26.8884591 332.591683,48.2304285 348.500922,51.5056925 C350.343718,51.8846111 352.296292,51.4546406 353.72673,50.2123773 C358.425946,46.1304931 351.182367,39.6139998 357.300876,36.034126 C357.758371,35.7669544 358.245957,35.561045 358.742459,35.379527 C369.79924,31.3390516 381.619999,27.0336734 393.156008,29.5182 C405.774737,32.2358636 415.626205,42.8211945 421.072682,54.7236648 C423.546833,60.1306299 425.257564,66.5342417 422.817404,71.9570896 C420.377244,77.3805047 412.154035,79.9711057 408.524723,75.2885107 C412.198614,72.0365037 415.727623,69.1566084 420.527142,68.3221933 C423.313349,67.1877063 422.756107,63.7842453 421.229824,63.1398566 C418.348886,62.2651672 415.157008,62.4994387 412.429869,63.7865142 C414.352909,63.7643917 416.275949,63.741702 418.198988,63.7195795 C418.803595,65.1978161 417.240533,67.0532695 415.713135,66.6703802 C412.529616,57.566122 393.778447,62.7512948 392.680124,53.1529676 C394.341818,51.5119322 395.097437,48.8481567 394.320085,46.6784503 C393.407881,44.1320942 390.61053,43.0475247 388.188202,44.171234 C384.87596,45.7073294 386.811259,51.0354476 389.842094,50.5981029 C384.661979,46.4135476 376.628232,45.1259048 373.161634,39.3927748 C370.945486,41.2391524 372.047152,42.2289923 371.48991,44.4979663 C367.466628,44.9426852 365.360256,42.2289923 365.110055,40.4716719 C365.020896,39.8471368 365.886292,39.0223648 366.474739,38.8255313 C367.811561,38.3785434 370.291284,38.1380322 372.047152,37.6910443 C371.185657,38.56857 368.483036,45.4719234 365.917498,47.3341838 C363.506315,49.0846972 361.189863,45.8723973 361.459567,44.4979663 C360.345085,48.4686708 365.360256,47.9014273 365.360256,47.9014273 C365.360256,47.9014273 366.732742,53.6833403 370.932669,54.7083493" id="Stroke-3"></path>
            <path d="M394,49 C394,51.7615385 392.209067,54 390,54 C387.790933,54 386,51.7615385 386,49 C386,46.2384615 387.790933,44 390,44 C392.209067,44 394,46.2384615 394,49" id="Fill-5"></path>
            <path d="M375.986014,32.3323121 C376.115493,33.5747296 375.3315,34.7540555 374.234265,34.9669893 C373.137031,35.1793165 372.142579,34.345174 372.0131,33.1033632 C371.883621,31.8615524 372.730351,31.2828091 373.827586,31.0698753 C374.924375,30.8569415 375.85609,31.0905014 375.986014,32.3323121" id="Fill-7"></path>
            <path d="M367.940217,111.56371 C369.910502,113.359529 368.913204,117.000635 366.752852,118.541634 C364.591947,120.082633 361.813325,120.184446 359.205432,120.439266 C355.063191,120.842491 350.98449,121.757657 346.91684,122.671097 C338.60197,124.538243 330.2871,126.405388 321.97223,128.272534 C317.83662,129.20093 313.65073,130.135078 309.422849,129.983796 C305.194967,129.833665 300.853267,128.482487 297.828774,125.403365 C293.757808,121.258371 292.546685,114.569204 288,111" id="Stroke-9" stroke-linejoin="round"></path>
            <path d="M340,123 C339.766528,125.149186 339.532475,127.299129 339.299003,129.449072 C339.188075,130.468383 339.017907,131.615676 338.35408,132.175312 C337.945794,132.519122 337.434711,132.559258 336.949182,132.589549 L330.283612,133 C329.522215,130.538811 328.760817,128.077622 328,125.61719" id="Stroke-11" stroke-linejoin="round"></path>
            <path d="M329,126.097164 C323.86747,127.28302 318.642884,128.216758 313.365776,128.891624 C312.572854,128.993372 311.737011,129.085665 310.984187,128.86236 C310.101468,128.600338 309.503953,127.958787 308.8782,127.397374 C307.785392,126.417264 306.463291,125.600131 305,125" id="Stroke-13" stroke-linejoin="round"></path>
            <path d="M327,131 C324.13164,131.573869 321.574405,133.011657 320,134.9351 C322.949741,135.337335 326.136112,133.825716 326.979342,131.623729 C326.528617,131.520173 326.030943,131.418536 325.600876,131.56476 C325.17081,131.710504 324.959846,132.227801 325.347344,132.431076" id="Stroke-15" stroke-linejoin="round"></path>
            <path d="M367,113.825522 C370.140196,113.922635 373.280943,113.981035 376.422241,113.999408 C376.924585,114.002689 377.444003,114.00072 377.903383,113.758592 C379.283174,113.03352 379.30025,110.499376 378.293911,109.161437 C377.287572,107.823498 375.710588,107.3773 374.236057,107" id="Stroke-17" stroke-linejoin="round"></path>
            <path d="M367,109.918512 C368.641392,109.993693 370.296042,110.06838 371.922849,109.889329 C372.736253,109.800298 373.653735,109.575742 373.948735,109.002976 C374.243735,108.430209 373.193668,107.689273 372.6335,108.137891" id="Stroke-19" stroke-linejoin="round"></path>
            <path d="M358.993225,108.196242 C355.930287,104.070867 351.463504,101.182704 346.690539,99.4363199 C341.917015,97.6899359 336.827792,97.0213268 331.764878,96.7435969 C331.139641,95.1063618 330.514963,93.4691268 329.889725,91.8313203 C333.652346,90.6598257 337.814627,90.8792667 341.43899,92.4410689 C343.999834,93.5439881 346.249458,95.2669423 348.471095,96.9727526 C350.782852,98.7494241 353.095168,100.524953 355.407484,102.301053 C356.953506,103.48912 358.505125,104.681187 359.884342,106.066979 C360.75251,106.9396 361.569182,107.901368 362.637179,108.497973 C363.705737,109.094578 365.126935,109.243729 366.086342,108.477972 C367.275245,107.528776 367.225428,105.569237 366.388046,104.286879 C365.551224,103.003949 364.159692,102.235335 362.824135,101.517008 C356.351217,98.0356696 349.87774,94.5543307 343.404823,91.0724204 C341.935486,90.2820902 340.457753,89.4883312 338.882625,88.9517295 C336.106278,88.005962 333.121146,87.8928128 330.200385,88.0699656 C329.842706,88.0916811 329.446965,88.1368265 329.211311,88.4122706 C328.9695,88.6940008 328.986853,89.1128815 329.017079,89.4866168 L329.460958,94.8943499" id="Stroke-21" stroke-linejoin="round"></path>
            <path d="M292,95 C288.906239,95.537454 285.786366,96.6416571 283.532006,98.90133 C281.277646,101.161566 280.090081,104.770508 281.271118,107.780588 L284.244109,108.656627 C282.726333,107.100038 284.184269,104.345727 286.037696,103.244905 C287.891124,102.144082 290.212397,101.63874 291.455994,99.8399026 C289.011776,98.4258466 285.771134,100.217923 284.512848,102.808294 C283.254563,105.398664 283.426469,108.454941 283.627207,111.347277 C281.452815,111.450937 279.27788,111.555723 277.102945,111.659946 C276.404986,111.693749 275.654802,111.746705 275.109164,112.199654 C274.273027,112.895978 274.278467,114.181586 273.978176,115.24748 C272.997877,118.724593 268.562054,119.794994 265.18269,118.860928 C261.803326,117.927426 258.864063,115.680711 255.47545,114.784391 C250.108289,113.364138 243.992032,115.857608 241,120.68568 C242.153292,121.756081 243.541051,122.553248 245.028363,123 C247.017792,120.15048 250.894378,119.444579 254.253613,119.960625 C257.612305,120.47667 260.773523,121.952697 264.119159,122.553812 C267.464794,123.156053 271.332132,122.665359 273.519035,119.975272 C274.221346,119.111628 274.7066,118.071085 275.445359,117.240679 C276.835294,115.679021 278.917204,115.055934 280.748328,114.099897 C282.579452,113.144424 284.391535,111.447556 284.27403,109.327599 C284.240301,108.718597 283.974282,108.048752 283.417764,107.849319 C282.861247,107.649323 282.140439,108.301141 282.438554,108.827327" id="Stroke-23" stroke-linejoin="round"></path>
            <path d="M334.826678,46 C334.612607,42.1774232 331.134764,39.6311855 327.910656,38.0199538 C319.977523,34.0551062 311.235375,31.984861 302.490511,32.0000833 C297.49298,32.0088655 291.67448,33.2781788 289.466938,38.1095318 C304.729566,34.4128324 321.222288,36.6868236 335,44.6703826 C331.822618,46.0661589 328.232306,45.4982465 324.845199,44.9075006 C315.145164,43.2154733 305.445129,41.5234459 295.745093,39.8325894 C293.316417,39.4087043 290.887741,38.9854048 288.459065,38.5615197 C288.041789,38.4889206 287.598433,38.4028555 287.289279,38.0925529 C286.998599,37.8009856 286.88124,37.3659765 286.675862,37.0000536 C285.838593,35.5070882 283.77775,35.5065028 282.301528,36.2207842 C280.824762,36.9350657 279.562611,38.1604682 278,38.615969 C280.595478,38.1522715 283.347434,38.7980522 285.528353,40.3829374 C285.986922,40.7160736 286.460704,41.1042446 287.013269,41.1171251 C287.566377,41.1311765 288.150454,40.5240373 287.916823,39.9848133" id="Stroke-25" stroke-linejoin="round"></path>
        </g>
    </g>
</svg>