<?xml version="1.0" encoding="UTF-8" standalone="no"?>
<svg width="126px" height="197px" viewBox="0 0 126 197" version="1.1" xmlns="http://www.w3.org/2000/svg" xmlns:xlink="http://www.w3.org/1999/xlink">
    <!-- Generator: Sketch 48.2 (47327) - http://www.bohemiancoding.com/sketch -->
    <title>Page 1</title>
    <desc>Created with Sketch.</desc>
    <defs></defs>
    <g id="05_confirmation_envoi_resa" stroke="none" stroke-width="1" fill="none" fill-rule="evenodd" transform="translate(-125.000000, -210.000000)">
        <g id="Page-1" transform="translate(126.000000, 211.000000)" stroke="#FFFFFF" stroke-width="1.25">
            <path d="M75.7115987,110.338142 C74.2706021,108.675445 72.6798024,106.958759 70.5530097,106.375141 C68.4248427,105.792206 65.6823452,106.914339 65.3882363,109.089581 C65.0453382,111.620189 67.998797,113.668321 67.8036406,116.214646 C66.3757003,114.657875 68.5265439,111.96462 70.6244755,112.259846 C72.722407,112.554389 74.129045,114.555366 74.9330345,116.504405 C73.4370643,115.253795 71.2154421,114.63669 69.498203,115.563372 C67.7802768,116.490054 67.2497811,119.278985 68.8488269,120.396334 C69.856906,118.593541 72.9388657,118.562788 73.9826777,120.345763 C72.8083033,118.979658 70.368848,119.574211 69.3477127,121.057859 C68.3265773,122.54014 68.3506283,124.48508 68.5416617,126.272155 C69.4569728,134.814579 73.0673666,142.554698 75.611959,150.659066 C77.921539,158.012385 80.1933247,165.386889 82.98736,172.575509 C85.5271421,179.110805 89.6556625,182.879039 95.6924554,186.452506 C98.8513781,188.322272 102.642498,188.732308 106.302368,189.074688 C115.634143,189.946699 123.870569,187.283513 123.995634,176.828953 C124.232021,157.158826 114.815723,140.822978 108.845586,122.72329 C102.801234,104.397399 100.932818,85.0471002 100.211976,65.8683334 C100.060798,61.8410931 100.135013,57.5958501 102.149797,54.0996068 C103.262326,52.1669688 104.942457,50.5165725 105.558162,48.3754994 C106.302368,45.78817 105.32315,42.9985561 103.882153,40.7208042 C102.522243,38.5701635 100.484782,36.5562017 97.9374414,36.3730521 C95.3901003,36.1892191 92.7218173,38.8025175 93.7072198,41.1458752 C96.4943833,41.3857465 99.6402499,41.8183348 101.268157,44.081052 C102.896064,46.3424025 100.802942,50.5596263 98.2253658,49.4805474 C97.6715064,28.182576 81.8411596,40.5526893 68.8103453,38.4334847 C55.7795311,36.3149636 48.1952303,37.7500908 32.8156673,35.0185654 C31.6378571,34.8087634 30.8702876,36.4379745 29.743328,36.8398101 C27.4303121,37.66535 24.8396793,37.0004077 22.4290852,37.4781001 C18.9265772,38.1724283 16.1620902,41.5470274 16.1868284,45.0986256 C16.2115665,48.6509071 19.0220939,51.9872362 22.5342223,52.6337269 C23.2880483,50.7338918 24.0425615,48.8340567 24.7963876,46.934905 C25.3358164,45.5756345 25.8491328,43.9436899 25.0121591,42.7443336 C23.5381784,40.6333298 19.7388127,43.1085825 20.3180974,45.6132212 C20.896695,48.1178599 23.8625229,49.3370346 26.4462839,49.2891971 C29.0293579,49.2406761 31.5492121,48.3413297 34.1336603,48.3795998 C37.6842703,48.4322211 41.9495376,50.010861 44.3161528,47.3784277 C46.1137909,45.3788171 44.8775711,41.5791469 42.2264673,41.0843697 C39.5767379,40.5902759 37.0376429,43.8247793 38.2340067,46.2282757 C39.4296834,48.6317721 43.664028,48.4937265 44.6288154,45.9897712 C45.5936028,43.4858159 42.3886396,40.5629402 39.9965991,41.80125 C37.5440875,42.4778099 37.6560963,46.3902401 39.6990542,47.8991738 C41.7426993,49.408791 44.5429191,49.2106068 47.0744552,48.9440831 C52.6659616,48.3570478 58.2581551,47.7686456 63.8496615,47.1816102 C66.5955948,48.6256216 67.0058356,52.8571967 64.927832,55.1534002 C62.8498284,57.4502872 59.0841341,57.7291119 56.3608774,56.2427301 C53.6376207,54.7563484 51.9183201,51.8382564 51.2840617,48.8142383 C54.0066312,51.7043112 55.2435381,57.0778375 59.2243169,56.9643941 C63.0814049,56.8550511 64.1362116,51.6510064 63.8737125,47.8226337 C65.7352574,50.1885435 69.9125668,48.6843934 72.9333684,48.6843934 C75.6820504,48.6843934 74.0768201,48.1896163 77.0563914,48.6843934 C79.3371103,49.0636771 81.4281701,43.7058688 80.0387113,45.543515 C78.6492526,47.3818446 75.2821171,47.0503986 74.282284,44.9762981 C73.1037866,42.531798 76.4035794,48.9399828 79.1179029,48.6843934 C84.0490384,48.220369 81.6673054,38.8551388 76.8433685,41.6734553 C74.2602946,43.1830724 73.9668728,47.8287843 76.8035126,48.7882693 C79.0807957,49.5584543 81.5958397,47.1139542 81.2501929,44.7466777 C80.903859,42.3800846 77.6700346,40.5034849 75.6820504,41.8504543 C73.3731575,43.4154264 74.1015582,44.4131815 74.9948799,46.6342117 C76.3692209,50.0511813 68.4633242,48.761617 67.9074033,49.1374836 C66.8216739,49.8721321 65.4411484,49.9746412 64.1279656,49.9801083 C59.7218283,49.9971932 55.3143167,49.563238 50.9975116,48.687127 C52.345053,50.3436739 54.9288141,50.8480186 56.8054767,49.8215609 C58.3117544,48.9973879 59.7170181,47.2772854 61.3414892,47.8356182 C62.739194,48.3153607 63.017498,50.3231721 62.231375,51.5676324 C61.4452519,52.8120927 60.0090656,53.4661007 58.6532782,54.0524526 C58.2767087,57.9245626 57.9331235,62.0098914 59.5733995,65.5423545 C61.2129883,69.0741343 65.5943874,71.6614636 69.1181977,69.9734806 C72.1156355,68.5369866 73.1958675,64.7680692 73.0371311,61.4631762 C72.7684474,65.0612452 71.0979359,68.9647912 67.6923189,70.2072014 C64.2860148,71.4496115 59.7163309,68.0135069 61.1332765,64.6922125 C62.0953152,68.3237677 57.5215084,71.5883405 53.8884379,70.5625662 C50.2560546,69.5367919 48.0241249,65.8054612 47.2373146,62.1322189 C46.5460211,65.2225262 48.2453938,68.6791326 51.1225766,70.0336193 C53.9997595,71.3894728 57.7654539,70.5078947 59.7321359,68.0176073 C59.5115541,69.4807536 57.6740602,70.4422889 56.3368264,69.7944314 C56.8838141,72.718674 59.0834469,76.5490969 61.7496684,75.2007607 C63.5541782,74.2877464 63.4998917,71.7455211 63.1831061,69.7568448 C63.8640921,71.9888093 62.3069637,74.6335437 60.0159373,75.1337881 C58.0093994,73.4130022 56.5615312,71.0580268 55.9334573,68.4980332 C59.7630585,68.2458608 61.961317,63.5468443 61.050816,59.8394323 C60.1389408,56.1327037 57.1861691,53.3178042 54.3460935,50.75166 C53.1208685,49.6438785 52.0461338,47.6107816 50.3989861,47.7775297 C48.1952303,48.0009995 44.8514587,48.7575166 42.0106958,48.6843934 C37.840258,48.577784 33.124894,48.7910029 28.9544563,48.6843934 C27.3705283,48.6440732 26.2648709,45.9556016 24.9936055,46.8952682 C23.9216195,47.6880051 23.3828779,49.0049052 23.0468515,50.2910525 C21.2265368,57.2555199 23.9271169,64.4844607 25.0087233,71.5992748 C26.0765862,78.6197804 25.5522751,85.7878992 24.5730572,92.820706 C22.7809165,105.682863 19.4687547,118.333168 14.7252167,130.429923 C11.1746067,139.486259 6.58636929,148.663556 3.6906328,158.158631 C1.79198071,164.383666 -4.14929545,181.690617 4.81827959,185.373427 C9.20655041,187.175537 13.7714241,188.964662 18.5177107,188.8273 C25.4615686,188.625699 31.7347481,184.229426 35.8804478,178.686418 C40.0268346,173.142043 45.8299894,166.515855 48.1388823,160.000378 C52.23648,148.436669 57.0219354,136.872278 61.1195331,125.308569 C61.9104663,123.076605 62.5914523,120.283574 60.9209408,118.597641 C59.5864557,117.251355 57.2679424,117.370949 55.6427842,118.352303 C54.0183131,119.333656 52.9243377,120.969018 51.8846487,122.551075 C52.3890319,120.184482 52.925712,117.742032 54.3488421,115.780008 C55.7712851,113.818667 58.3351182,112.459397 60.6570673,113.180377 C62.9783293,113.902041 64.2248566,117.259556 62.4574541,118.92157 C63.4703434,117.150896 64.504535,115.313933 64.7113733,113.28767 C64.9175245,111.261407 64.0674945,108.980238 62.2004523,108.143081 C61.1923732,107.691358 60.022809,107.712543 58.9480743,107.970182 C52.7147507,109.466815 50.8642005,117.137228 47.4372812,122.527839 C45.2541406,125.961894 42.1350737,128.685219 39.1575639,131.467999 C32.6163879,137.582324 25.1949465,144.211245 19.5848865,151.181179 C14.2902378,157.758846 6.47848352,165.006238 5.29311441,173.349111 C4.1077453,181.691301 7.99987901,191.306653 15.9875489,194.113352 C22.670282,196.46081 29.9137463,193.626092 36.7112369,191.630582 C53.5407296,186.691011 71.8813103,186.976669 88.5472565,192.438353 C99.4011145,195.995419 113.585688,193.385537 116.0382,179.169577 C118.551869,164.594152 102.630129,146.86213 95.0375819,135.772697 C89.0214041,126.985618 82.6946253,118.394673 75.7115987,110.338142 Z" id="Stroke-1" stroke-linejoin="round"></path>
            <path d="M73,45.5 C73,47.9853846 75.0146154,50 77.5,50 C79.9853846,50 82,47.9853846 82,45.5 C82,43.0146154 79.9853846,41 77.5,41 C75.0146154,41 73,43.0146154 73,45.5" id="Fill-3"></path>
            <path d="M37,45.5 C37,47.9853846 39.0146154,50 41.5,50 C43.9853846,50 46,47.9853846 46,45.5 C46,43.0146154 43.9853846,41 41.5,41 C39.0146154,41 37,43.0146154 37,45.5" id="Fill-5"></path>
            <path d="M85.0102414,25.8657221 C88.3220056,28.6517479 91.6344544,31.4363877 94.9469033,34.2224135 C95.5014885,34.6874442 96.1129017,35.3021718 95.9821291,36.0194695 C95.8588879,36.6951847 95.1434045,37.0583383 94.5080277,37.3002097 C85.7496884,40.6302729 76.0910039,40.1513814 66.749323,39.6267492 C61.0644816,39.3079502 55.3803249,38.9891512 49.6954835,38.6703523 C41.6759065,38.2191824 33.4625671,37.725044 26.0852136,34.5100256 C25.7716333,34.3728035 25.4464135,34.2217205 25.2355342,33.9486622 C24.3742153,32.837024 26.0578267,31.5659864 27.3415889,31.0101673 C30.5602375,29.6171544 33.2297782,26.9711229 34.6730693,23.7429367 C41.021359,25.814437 47.8044162,25.9502731 54.4738176,26.0673971 C64.9664341,26.2524391 75.5425807,26.4298577 85.8606055,24.4935004 C86.0064409,22.4947694 85.9064786,20.0240774 84.1407065,19.1175794 C83.4957443,18.7856126 82.7467119,18.7495745 82.023697,18.7204668 C66.2392415,18.0787106 50.4493087,17.4369544 34.6525291,17.4584386 C34.3588043,19.4419227 34.0650795,21.4267929 33.7713547,23.4102769 C35.3385716,18.5180987 36.5620826,13.5143409 37.4288788,8.44751626 C37.8102418,6.21938863 37.8205119,5.73980409 38.9693935,3.80067466 C41.023413,0.335468394 43.8730228,0.35002226 49.2394912,0.335468394 C56.4299289,0.317449322 62.1620127,-0.410243994 70.4643597,0.335468394 C75.6336422,0.799806034 81.1308832,0.89752485 82.7884769,5.87979842 C84.4447014,10.8579137 86.2118428,14.8893347 85.5271697,20.4336647" id="Stroke-7" stroke-linejoin="round"></path>
        </g>
    </g>
</svg>