<?xml version="1.0" encoding="UTF-8" standalone="no"?>
<svg width="152px" height="193px" viewBox="0 0 152 193" version="1.1" xmlns="http://www.w3.org/2000/svg" xmlns:xlink="http://www.w3.org/1999/xlink">
    <!-- Generator: Sketch 48.2 (47327) - http://www.bohemiancoding.com/sketch -->
    <title>Page 1</title>
    <desc>Created with Sketch.</desc>
    <defs></defs>
    <g id="00_01_onboarding" stroke="none" stroke-width="1" fill="none" fill-rule="evenodd" transform="translate(-118.000000, -275.000000)">
        <g id="Page-1" transform="translate(119.000000, 276.000000)">
            <path d="M63.4211024,56.4000914 C54.0737859,52.4118038 39.7417378,43.3526354 29.6241683,48.5859306 C26.491772,50.2060138 24.2520431,53.1391156 22.3201132,56.1057154 C20.1307607,59.4676926 18.1948007,62.9966521 16.5338952,66.6524978 C15.723341,68.436518 14.8100193,70.421526 13,71.1447775 C13.8805772,70.8458335 14.7616581,70.5468896 15.6422352,70.2474381 C15.1792773,68.1568608 16.169171,65.9865989 17.5464581,64.3538271 C18.9232415,62.7210552 20.6783507,61.4592987 22.1659619,59.9280358 C25.2494932,56.7548653 27.2045961,52.4123113 30.9319362,50.0425843 C32.0336651,49.3421724 33.3635986,48.8320898 34.6280429,49.1472752 C35.9645253,49.4802246 36.9105916,50.6364118 38.0264259,51.4484836 C39.6873315,52.6579631 41.7567885,53.1142459 43.761764,53.5431213 C46.712302,54.1739996 49.6744265,54.766812 52.617408,55.4367712 C54.7714972,55.926552 54.7876177,55.5783763 54.9377389,57.5933294 C55.0510855,59.1042905 54.5055106,60.937035 54.3100506,62.4454584 C54.0934327,64.1218791 53.8768147,65.7982998 53.659693,67.4737054 C52.7378073,74.6047109 51.8139066,81.7890085 52.2738419,88.9651855 C52.4572115,91.8297687 52.9639968,94.8988925 54.9740098,96.9331324 C60.4383236,97.1407182 65.920269,96.8646138 71.3372291,96.1098946 C71.8032095,94.7039953 70.9639409,93.1894814 69.9317312,92.132773 C68.8995215,91.0760646 67.6265132,90.2203439 66.8804407,88.9423459 C65.8331181,87.1486824 66.0331118,84.9129472 66.2653464,82.8452094 C66.3283168,82.28691 66.4023699,81.7001882 66.733342,81.2479657 C67.1867284,80.6307911 67.9957712,80.4232053 68.7398287,80.2567305 C70.8616771,79.7816685 73.6424471,79.5928619 74.6388896,81.5392964 C74.9164629,82.082877 74.9879972,82.7091874 74.9985762,83.3197638 C75.0343433,85.3565414 74.3970835,87.455747 72.9920894,88.9205215 C71.5865916,90.385296 69.3609681,91.1009343 67.4476774,90.442141 L65.9731641,81.1144814 C65.7600725,79.7664422 65.5726728,78.2793357 66.3011136,77.128224 C67.4280307,75.3447113 69.9805962,75.3878526 72.0641586,75.6390873 C72.5643949,75.6994851 73.1270978,75.7969338 73.4087012,76.2171809 C73.5779654,76.4694307 73.6071837,76.7886764 73.6313643,77.0926958 C73.7447109,78.5457968 73.859065,79.9988978 73.9729154,81.4514912 C73.4555511,79.8293778 71.2258975,79.7745629 69.5539092,80.0288429 C67.8814171,80.2836304 65.6416882,80.1871969 65.1686551,78.5513798 C65.8829906,78.1636155 66.597326,77.7753437 67.3116615,77.3875794 C66.2990985,77.6931214 65.3933332,76.404465 65.6144851,75.3634904 C65.8361406,74.3225159 66.7192366,73.5779476 67.5479262,72.9176317 C66.9796819,67.4117849 65.6754403,61.9841001 63.6810439,56.8264291 C64.400417,60.6568702 62.7742711,64.4781756 61.8161145,68.2543094 C60.8584616,72.0314584 60.8221907,76.6577299 63.8135335,79.1294734 C64.0301515,79.3086367 64.3021833,79.4817095 64.5727039,79.4081155 C64.8432244,79.3350291 64.9500221,78.8731632 64.6835316,78.7863731 C64.120325,80.2034383 63.7329315,81.6915599 63.534449,83.2050587 C62.2977116,83.1253742 62.0407926,81.2657297 62.721376,80.222725 C63.4019594,79.1787052 64.5757264,78.5183894 65.1767153,77.4266603" id="Stroke-1" stroke="#000000"></path>
            <path d="M44.2511696,91.5411649 C47.1359136,92.1393673 50.0583963,92.7273614 53,92.5946544 C50.7940488,95.0946502 46.9034434,94.9762347 43.703204,94.1279307 C38.016741,92.6206854 32.8495621,89.4796127 27.1550481,88.0045233 C23.9241147,87.1679588 20.5548061,86.8821283 17.2322934,87.1638755 C17.4869037,86.6871511 18.1425502,87.3491549 18.1606647,87.8912119 C18.2140021,89.4785919 17.4411141,90.9643999 17.1512811,92.5257488 C16.2686993,97.2735971 19.87551,101.768792 19.9348855,106.600347 C19.9922483,111.261426 16.7789262,115.323281 16,119.917495 C17.5211201,120.13493 19.1006093,119.920047 20.5110292,119.30296 C19.1765898,115.938837 20.7445058,112.207218 21.3880759,108.640462 C22.1574417,104.376995 21.4630501,100.183964 19.7763831,96.244097 C18.5632106,93.410292 17.068256,90.0767942 20.2579285,87.893764 C23.2619268,85.8388471 28.0612794,88.0484187 31.2132133,88.7461513 C35.5531605,89.7072562 39.8996491,90.6387573 44.2511696,91.5411649 Z" id="Stroke-3" stroke="#000000"></path>
            <path d="M55,51.5563417 C55.7841665,49.929046 57.8706381,48.8484995 59.9003714,49.0173349 C60.1166194,49.298573 59.9549687,49.6977646 59.6632481,49.9221076 C59.3709922,50.1459879 58.9829234,50.2454389 58.6200122,50.3707934 C57.2160063,50.8541715 56.0405595,51.8153768 55.4041268,53" id="Stroke-5" stroke="#000000"></path>
            <path d="M54.4386199,51.1623031 C56.0883056,42.1508893 54.7554603,32.8911076 53.4200964,23.8276981 C53.1254198,21.8256104 52.8307431,19.8235227 52.5355627,17.8219399 C52.2232558,15.6992019 51.9054079,13.5572811 51.1447895,11.5516597 C48.430238,4.39290901 40.4447519,0.353901568 32.8098555,0.0272876676 C25.1739516,-0.299326233 17.7596849,2.36103737 10.6078567,5.06128119 C9.76966526,5.37779884 8.85339709,5.76499028 8.47258415,6.57824375 C8.13106144,7.30618384 8.32449023,8.16083196 8.52396368,8.94026297 C9.67647691,13.4492512 11.1176222,18.3762244 15.0123915,20.9113944 C16.6127126,21.9528233 18.5182884,22.4980211 20.0012425,23.7004853 C24.2828695,27.1730927 23.0870362,33.8946755 21.4947747,39.1785514 C19.9448258,44.317546 18.3943731,49.4615887 16.5301024,54.4945726 C13.782809,61.9087586 10.3565,69.0705382 6.3080958,75.8592612 C4.5586734,78.7927285 2.6616608,81.7342729 1.93076189,85.0726001 C1.19986299,88.4104225 1.90507213,92.3156546 4.59846735,94.4126471 C12.4162144,93.9608396 16.2213215,84.5581958 22.9328977,80.5151499 C28.1569863,77.3681467 34.8529471,77.6987991 40.2477971,74.8556933 C32.1162319,77.4095414 24.1398128,80.4606301 16.3774749,83.9857381 C15.4984821,84.3855498 14.5968219,84.808583 13.9475257,85.5244076 C13.1501357,86.4032867 12.8353102,87.6032268 12.3305819,88.6774685 C11.0501236,91.4069915 8.35723209,93.4216995 5.38175322,93.8755262 C5.78221127,92.6972931 6.45367112,91.6124503 7.3291379,90.7295327 C6.10358515,90.7689081 4.87752868,90.8077786 3.65247965,90.847154 C4.04991537,90.310538 4.44684738,89.7734172 4.84377938,89.2362963 C2.38511807,90.1631327 0.231711576,86.6622557 1.09408162,84.1755477 C1.95645166,81.6893445 4.36071112,80.1547135 6.34839347,78.4333018 C11.7377025,73.7673168 14.6129409,66.9069105 18.7303549,61.0833897 C22.8482726,55.2603737 29.4918464,50.0416187 36.4708984,51.462162 C28.2824128,55.0594582 19.3897254,59.3392613 15.8092779,67.5490324 C14.6683502,70.1654773 14.1424657,73.0615885 12.6328144,75.4826708 C11.0128482,78.0799328 8.42372324,79.8795905 6.09351073,81.8609809 C3.76279451,83.8413616 1.5267778,86.2785979 1.08299976,89.3089894 C0.639221718,92.3393808 2.82587379,95.8771091 5.87993311,95.7675647 C6.72316175,106.541785 7.56739785,117.334683 7.40721463,128.140707 C7.21731188,140.913986 5.90663031,154.7923 13.0423394,165.377215 C14.8234962,168.019406 17.0751283,170.337506 18.659834,173.102871 C20.2440359,175.867731 19.1413911,175.004501 21.1562743,179.547816 C21.9612202,179.486229 21.4247575,182.121352 22.2302071,182.059765 C20.9618381,185.15982 13.9062206,183.7731 10.5781372,184.091132 C7.24955001,184.409164 5.74342476,185.480377 2.51860409,184.595944 C2.97749375,185.288548 0.604968702,187.18412 0,186.615196 C0.254882734,187.81665 3.23288021,190.128188 4.09726513,191 C9.90113639,188.421416 16.5008865,188.637981 22.8477689,188.786396 C37.1579736,189.120077 51.4742229,188.867671 65.7864425,188.615769 C70.1214639,188.539542 75.768678,182.74833 80.09161,183.081506 C93.1883513,184.091132 98.6038538,185.231504 108.63898,185.810524 C113.840905,186.110383 118.439876,187.06145 122.90788,186.110383 C124.638161,185.742374 125.311635,187.006426 127.041413,186.635388 C130.074819,185.984685 133.215519,186.818635 136.317431,186.775726 C141.770209,186.700004 147.097561,183.701921 150,179.074807 C146.685517,181.444903 142.284508,178.883987 138.214444,179.016753 C121.900438,179.547816 111.322301,181.062255 92.9072751,177.055555 C91.5099535,176.751153 89.9836794,177.030315 88.7188365,176.361942 C87.8549553,175.905087 87.1658652,175.184719 86.4082691,174.566323 C82.1301682,171.075038 75.9893077,171.038691 71.1520767,168.378832 C66.1163797,165.610439 62.9882734,160.248822 61.2494291,154.762516 C56.9008073,141.046247 59.8460629,126.039171 57.0987696,111.912993 C56.1306182,106.936549 54.4663246,102.126187 53.2453053,97.2057764 C49.6285899,82.6262771 51.7341429,65.9391843 54.4386199,51.1623031 Z" id="Stroke-7" stroke="#000000"></path>
            <path d="M33,10.9042281 C33.4258622,10.379088 33.8610299,9.84537414 34.4264741,9.46652304 C34.9919184,9.08713608 35.7177452,8.87922346 36.37296,9.07481137 C37.0872918,9.28808257 37.5903347,9.94397188 37.809287,10.6432656 C38.0282392,11.3420235 38.0090809,12.0879369 37.9877331,12.8188462 C37.971859,13.3814964 37.9527007,13.957543 37.7441487,14.4821472 C37.1951258,15.8598363 35.2179867,16.4524945 33.9748851,15.6122702 C35.3822009,14.5780657 36.1129541,12.7331091 35.7861678,11.0408717 C34.73246,11.1255372 33.7214478,11.6372809 33.0432431,12.4303497" id="Stroke-9" stroke="#000000"></path>
            <path d="M18.4478761,6.88455574 C18.5250259,7.3857819 18.981919,7.75797 19.4628347,7.84126695 C19.9437504,7.92408241 20.4357535,7.7675997 20.8709337,7.53889421 C21.1596679,7.38722635 21.4479402,7.18596551 21.578679,6.87733347 C21.7851817,6.3929593 21.5079969,5.79639907 21.0751266,5.51858207 C20.6413323,5.24076508 20.1012838,5.21669082 19.5949595,5.2696542 C19.1500778,5.31587678 18.6867171,5.42806285 18.358253,5.74439866 C17.7452126,6.33614404 17.9531012,7.57259817 18.7218272,7.91252677 C19.4910151,8.25293684 20.4879566,7.5490054 20.4704016,6.67848005 C21.2746996,6.64333163 21.9866027,5.88210344 22,5.04335613 C20.7956318,4.90854026 19.5598494,5.08957871 18.4381747,5.56624911 C18.2709398,5.63654596 18.0866119,5.73813935 18.047344,5.92110375 C18.0187016,6.05206774 18.0746005,6.18495767 18.1337333,6.30340304 C18.34116,6.71748036 18.6067955,7.10026114 18.9195524,7.43441191 C19.4226429,7.47822706 19.7825212,6.96400081 20.0754132,6.53596042 C20.3687672,6.10840151 20.866314,5.66639805 21.3195112,5.89847394 C20.536464,5.79832501 19.7372477,5.8344364 18.9652879,6.00584515" id="Stroke-11" stroke="#000000" stroke-linejoin="round"></path>
            <path d="M22,6 C22,7.1045 21.1045,8 20,8 C18.8955,8 18,7.1045 18,6 C18,4.8955 18.8955,4 20,4 C21.1045,4 22,4.8955 22,6" id="Fill-13" fill="#000000"></path>
        </g>
    </g>
</svg>