<?xml version="1.0" encoding="UTF-8" standalone="no"?>
<svg width="126px" height="267px" viewBox="0 0 126 267" version="1.1" xmlns="http://www.w3.org/2000/svg" xmlns:xlink="http://www.w3.org/1999/xlink">
    <!-- Generator: Sketch 48.2 (47327) - http://www.bohemiancoding.com/sketch -->
    <title>Page 1</title>
    <desc>Created with Sketch.</desc>
    <defs></defs>
    <g id="08_rappel_wishlist" stroke="none" stroke-width="1" fill="none" fill-rule="evenodd" transform="translate(-125.000000, -166.000000)">
        <g id="Page-1" transform="translate(126.000000, 167.000000)" stroke="#FFFFFF" stroke-width="1.25">
            <path d="M75.7115987,180.338142 C74.2706021,178.675445 72.6798024,176.958759 70.5530097,176.375141 C68.4248427,175.792206 65.6823452,176.914339 65.3882363,179.089581 C65.0453382,181.620189 67.998797,183.668321 67.8036406,186.214646 C66.3757003,184.657875 68.5265439,181.96462 70.6244755,182.259846 C72.722407,182.554389 74.129045,184.555366 74.9330345,186.504405 C73.4370643,185.253795 71.2154421,184.63669 69.498203,185.563372 C67.7802768,186.490054 67.2497811,189.278985 68.8488269,190.396334 C69.856906,188.593541 72.9388657,188.562788 73.9826777,190.345763 C72.8083033,188.979658 70.368848,189.574211 69.3477127,191.057859 C68.3265773,192.54014 68.3506283,194.48508 68.5416617,196.272155 C69.4569728,204.814579 73.0673666,212.554698 75.611959,220.659066 C77.921539,228.012385 80.1933247,235.386889 82.98736,242.575509 C85.5271421,249.110805 89.6556625,252.879039 95.6924554,256.452506 C98.8513781,258.322272 102.642498,258.732308 106.302368,259.074688 C115.634143,259.946699 123.870569,257.283513 123.995634,246.828953 C124.232021,227.158826 114.815723,210.822978 108.845586,192.72329 C102.801234,174.397399 100.932818,155.0471 100.211976,135.868333 C100.060798,131.841093 100.135013,127.59585 102.149797,124.099607 C103.262326,122.166969 104.942457,120.516573 105.558162,118.375499 C106.302368,115.78817 105.32315,112.998556 103.882153,110.720804 C102.522243,108.570164 100.484782,106.556202 97.9374414,106.373052 C95.3901003,106.189219 92.7218173,108.802517 93.7072198,111.145875 C96.4943833,111.385746 99.6402499,111.818335 101.268157,114.081052 C102.896064,116.342403 100.802942,120.559626 98.2253658,119.480547 C97.6715064,98.182576 81.8411596,110.552689 68.8103453,108.433485 C55.7795311,106.314964 48.1952303,107.750091 32.8156673,105.018565 C31.6378571,104.808763 30.8702876,106.437975 29.743328,106.83981 C27.4303121,107.66535 24.8396793,107.000408 22.4290852,107.4781 C18.9265772,108.172428 16.1620902,111.547027 16.1868284,115.098626 C16.2115665,118.650907 19.0220939,121.987236 22.5342223,122.633727 C23.2880483,120.733892 24.0425615,118.834057 24.7963876,116.934905 C25.3358164,115.575635 25.8491328,113.94369 25.0121591,112.744334 C23.5381784,110.63333 19.7388127,113.108583 20.3180974,115.613221 C20.896695,118.11786 23.8625229,119.337035 26.4462839,119.289197 C29.0293579,119.240676 31.5492121,118.34133 34.1336603,118.3796 C37.6842703,118.432221 41.9495376,120.010861 44.3161528,117.378428 C46.1137909,115.378817 44.8775711,111.579147 42.2264673,111.08437 C39.5767379,110.590276 37.0376429,113.824779 38.2340067,116.228276 C39.4296834,118.631772 43.664028,118.493727 44.6288154,115.989771 C45.5936028,113.485816 42.3886396,110.56294 39.9965991,111.80125 C37.5440875,112.47781 37.6560963,116.39024 39.6990542,117.899174 C41.7426993,119.408791 44.5429191,119.210607 47.0744552,118.944083 C52.6659616,118.357048 58.2581551,117.768646 63.8496615,117.18161 C66.5955948,118.625622 67.0058356,122.857197 64.927832,125.1534 C62.8498284,127.450287 59.0841341,127.729112 56.3608774,126.24273 C53.6376207,124.756348 51.9183201,121.838256 51.2840617,118.814238 C54.0066312,121.704311 55.2435381,127.077837 59.2243169,126.964394 C63.0814049,126.855051 64.1362116,121.651006 63.8737125,117.822634 C65.7352574,120.188543 69.9125668,118.684393 72.9333684,118.684393 C75.6820504,118.684393 74.0768201,118.189616 77.0563914,118.684393 C79.3371103,119.063677 81.4281701,113.705869 80.0387113,115.543515 C78.6492526,117.381845 75.2821171,117.050399 74.282284,114.976298 C73.1037866,112.531798 76.4035794,118.939983 79.1179029,118.684393 C84.0490384,118.220369 81.6673054,108.855139 76.8433685,111.673455 C74.2602946,113.183072 73.9668728,117.828784 76.8035126,118.788269 C79.0807957,119.558454 81.5958397,117.113954 81.2501929,114.746678 C80.903859,112.380085 77.6700346,110.503485 75.6820504,111.850454 C73.3731575,113.415426 74.1015582,114.413181 74.9948799,116.634212 C76.3692209,120.051181 68.4633242,118.761617 67.9074033,119.137484 C66.8216739,119.872132 65.4411484,119.974641 64.1279656,119.980108 C59.7218283,119.997193 55.3143167,119.563238 50.9975116,118.687127 C52.345053,120.343674 54.9288141,120.848019 56.8054767,119.821561 C58.3117544,118.997388 59.7170181,117.277285 61.3414892,117.835618 C62.739194,118.315361 63.017498,120.323172 62.231375,121.567632 C61.4452519,122.812093 60.0090656,123.466101 58.6532782,124.052453 C58.2767087,127.924563 57.9331235,132.009891 59.5733995,135.542355 C61.2129883,139.074134 65.5943874,141.661464 69.1181977,139.973481 C72.1156355,138.536987 73.1958675,134.768069 73.0371311,131.463176 C72.7684474,135.061245 71.0979359,138.964791 67.6923189,140.207201 C64.2860148,141.449611 59.7163309,138.013507 61.1332765,134.692212 C62.0953152,138.323768 57.5215084,141.58834 53.8884379,140.562566 C50.2560546,139.536792 48.0241249,135.805461 47.2373146,132.132219 C46.5460211,135.222526 48.2453938,138.679133 51.1225766,140.033619 C53.9997595,141.389473 57.7654539,140.507895 59.7321359,138.017607 C59.5115541,139.480754 57.6740602,140.442289 56.3368264,139.794431 C56.8838141,142.718674 59.0834469,146.549097 61.7496684,145.200761 C63.5541782,144.287746 63.4998917,141.745521 63.1831061,139.756845 C63.8640921,141.988809 62.3069637,144.633544 60.0159373,145.133788 C58.0093994,143.413002 56.5615312,141.058027 55.9334573,138.498033 C59.7630585,138.245861 61.961317,133.546844 61.050816,129.839432 C60.1389408,126.132704 57.1861691,123.317804 54.3460935,120.75166 C53.1208685,119.643879 52.0461338,117.610782 50.3989861,117.77753 C48.1952303,118.001 44.8514587,118.757517 42.0106958,118.684393 C37.840258,118.577784 33.124894,118.791003 28.9544563,118.684393 C27.3705283,118.644073 26.2648709,115.955602 24.9936055,116.895268 C23.9216195,117.688005 23.3828779,119.004905 23.0468515,120.291053 C21.2265368,127.25552 23.9271169,134.484461 25.0087233,141.599275 C26.0765862,148.61978 25.5522751,155.787899 24.5730572,162.820706 C22.7809165,175.682863 19.4687547,188.333168 14.7252167,200.429923 C11.1746067,209.486259 6.58636929,218.663556 3.6906328,228.158631 C1.79198071,234.383666 -4.14929545,251.690617 4.81827959,255.373427 C9.20655041,257.175537 13.7714241,258.964662 18.5177107,258.8273 C25.4615686,258.625699 31.7347481,254.229426 35.8804478,248.686418 C40.0268346,243.142043 45.8299894,236.515855 48.1388823,230.000378 C52.23648,218.436669 57.0219354,206.872278 61.1195331,195.308569 C61.9104663,193.076605 62.5914523,190.283574 60.9209408,188.597641 C59.5864557,187.251355 57.2679424,187.370949 55.6427842,188.352303 C54.0183131,189.333656 52.9243377,190.969018 51.8846487,192.551075 C52.3890319,190.184482 52.925712,187.742032 54.3488421,185.780008 C55.7712851,183.818667 58.3351182,182.459397 60.6570673,183.180377 C62.9783293,183.902041 64.2248566,187.259556 62.4574541,188.92157 C63.4703434,187.150896 64.504535,185.313933 64.7113733,183.28767 C64.9175245,181.261407 64.0674945,178.980238 62.2004523,178.143081 C61.1923732,177.691358 60.022809,177.712543 58.9480743,177.970182 C52.7147507,179.466815 50.8642005,187.137228 47.4372812,192.527839 C45.2541406,195.961894 42.1350737,198.685219 39.1575639,201.467999 C32.6163879,207.582324 25.1949465,214.211245 19.5848865,221.181179 C14.2902378,227.758846 6.47848352,235.006238 5.29311441,243.349111 C4.1077453,251.691301 7.99987901,261.306653 15.9875489,264.113352 C22.670282,266.46081 29.9137463,263.626092 36.7112369,261.630582 C53.5407296,256.691011 71.8813103,256.976669 88.5472565,262.438353 C99.4011145,265.995419 113.585688,263.385537 116.0382,249.169577 C118.551869,234.594152 102.630129,216.86213 95.0375819,205.772697 C89.0214041,196.985618 82.6946253,188.394673 75.7115987,180.338142 Z" id="Stroke-1" stroke-linejoin="round"></path>
            <path d="M73,115.5 C73,117.985385 75.0146154,120 77.5,120 C79.9853846,120 82,117.985385 82,115.5 C82,113.014615 79.9853846,111 77.5,111 C75.0146154,111 73,113.014615 73,115.5" id="Fill-3"></path>
            <path d="M37,115.5 C37,117.985385 39.0146154,120 41.5,120 C43.9853846,120 46,117.985385 46,115.5 C46,113.014615 43.9853846,111 41.5,111 C39.0146154,111 37,113.014615 37,115.5" id="Fill-5"></path>
            <path d="M87.9507621,51.4317697 C88.4228992,50.1641048 89.0158928,48.8725343 90.0830156,48.041148 C91.1328732,47.2230427 92.4935045,46.9587521 93.7611694,46.5550118 C100.433509,44.4327191 105.182106,37.5771026 105.165505,30.5753959 C105.148904,23.5736891 100.575615,16.8827562 94.1961199,13.9968099 C87.8166247,11.1115277 79.9762272,11.9986938 74.1877335,15.9378179 C73.3616596,10.2310019 69.0546537,5.43525782 63.879075,2.89395171 C58.7028322,0.35264559 52.7602797,-0.201169227 47.00034,0.0578089248 C40.737053,0.338700612 34.1543596,1.70796458 29.565798,5.98044003 C24.9772364,10.2522514 23.3297369,18.1158906 27.4348727,22.8545267 C22.3150738,20.0635391 15.7801918,20.3012678 10.6597289,23.0922554 C5.53993007,25.8825789 1.87173697,31.0375723 0.478567322,36.6998971 C-0.976358652,42.6178799 0.837816501,50.1647689 6.58447528,52.192767 C10.2433717,53.4850016 14.456083,52.1701894 18.0831052,53.5500781 C21.7991096,54.9644973 27.8837681,58.0489934 28.5962901,61.9602276 C29.3081479,65.8721258 29.1700263,61.3061417 29.2603366,65.2804603 C29.565798,78.7798624 31.9417565,91.5202594 33.7499553,104.900797 C53.8300587,105.787299 73.7514549,109.771579 90.3526185,108.443486 C95.0016083,102.024148 89.2728788,80.5701319 87.8664282,73.3127673 C85.8776088,63.0525841 84.1955789,61.5113321 87.9507621,51.4317697 Z" stroke-linejoin="round"></path>
        </g>
    </g>
</svg>