<svg id="Calque_1" xmlns="http://www.w3.org/2000/svg" viewBox="0 0 48 32"><style>.st1{fill:#f48632}</style><path d="M32 0H16C7.2 0 0 7.2 0 16s7.2 16 16 16h16c8.8 0 16-7.2 16-16S40.8 0 32 0zM19 11.3c0 .8-.6 1.5-1.5 1.5h-.3l.4 13.8c0 .3-.1.7-.3.9-.2.2-.5.4-.9.4h-1c-.3 0-.6-.1-.9-.4-.2-.2-.4-.6-.3-.9l.4-13.8h-.2c-.8 0-1.5-.7-1.5-1.5V4.5c.1-.3.3-.5.6-.5h.1c.2 0 .4.2.4.5V9c0 .4.3.7.7.7h.1c.4 0 .7-.3.7-.7V4.5c0-.3.2-.5.5-.5h.1c.2 0 .4.2.4.5V9c0 .4.3.7.7.7h.1c.4 0 .7-.3.7-.7V4.5c0-.3.2-.5.5-.5h.1c.2 0 .4.2.4.5v6.8zm7 15.4c0 .7-.6 1.3-1.3 1.3h-1.1c-.3 0-.7-.1-.9-.4-.2-.2-.4-.6-.4-.9l.3-8.1c-.4 0-.9-.2-1.2-.5-.3-.3-.5-.8-.4-1.2l.7-10.3C21.8 5.1 23 4 24.5 4c.8 0 1.5.7 1.5 1.5v21.2zM39 10h-4v4h-2v-4h-4V8h4V4h2v4h4v2z" fill="#fff"/><path class="st1" d="M35 4h-2v4h-4v2h4v4h2v-4h4V8h-4zM24.5 4c-1.4 0-2.6 1.1-2.7 2.6L21 16.9c0 .4.1.9.4 1.2.3.3.7.5 1.2.5l-.3 8.1c0 .3.1.7.4.9.2.2.6.4.9.4h1.1c.7 0 1.3-.6 1.3-1.3V5.5c0-.8-.7-1.5-1.5-1.5zM18.6 4h-.1c-.3 0-.5.2-.5.5V9c0 .4-.3.7-.7.7h-.1c-.4 0-.7-.3-.7-.7V4.5c0-.3-.2-.5-.4-.5H16c-.2 0-.4.2-.4.5V9c0 .4-.3.7-.7.7h-.1c-.5 0-.8-.3-.8-.7V4.5c0-.3-.2-.5-.4-.5h-.1c-.3 0-.5.2-.5.5v6.9c0 .8.7 1.5 1.5 1.5h.2l-.4 13.8c0 .3.1.7.3.9.2.2.5.4.9.4h1c.3 0 .6-.1.9-.4.2-.2.4-.6.3-.9l-.4-13.8h.3c.8 0 1.5-.7 1.5-1.5V4.5c-.1-.3-.3-.5-.5-.5z"/></svg>