<?xml version="1.0" encoding="UTF-8"?>
<svg width="9px" height="16px" viewBox="0 0 9 16" version="1.1" xmlns="http://www.w3.org/2000/svg" xmlns:xlink="http://www.w3.org/1999/xlink">
    <!-- Generator: Sketch 47.1 (45422) - http://www.bohemiancoding.com/sketch -->
    <title>Icons / Active / Fork &amp; Knife</title>
    <desc>Created with Sketch.</desc>
    <defs></defs>
    <g id="Symbols" stroke="none" stroke-width="1" fill="none" fill-rule="evenodd">
        <g id="Home-/-Card" transform="translate(-135.000000, -88.000000)" fill-rule="nonzero" fill="#FFFFFF">
            <g id="Icons-/-Active-/-Fork-&amp;-Knife" transform="translate(134.937063, 88.000000)">
                <path d="M7.94292518,0 C6.94798867,0 6.11911717,0.746885405 6.0486213,1.71003947 L5.54134177,8.58688893 C5.51917554,8.88677207 5.6256461,9.18383277 5.83677032,9.40398227 C6.04789454,9.62377897 6.34295971,9.7511411 6.65219674,9.7511411 L6.68199396,9.7511411 L6.50829796,15.135631 C6.50066696,15.3660118 6.59005863,15.5826332 6.75539687,15.7477454 C6.92037173,15.9135631 7.1474847,16 7.38513572,16 L8.11226061,16 C8.59664715,16 8.99999979,15.6299089 8.99999979,15.1592688 L8.99999979,1.02101387 C9.00036317,0.457233578 8.52360762,0 7.94292518,0 Z" id="Shape"></path>
                <path d="M3.8481169,7.83917405e-17 L3.77651097,7.83917405e-17 C3.60556935,7.83917405e-17 3.47429181,0.12886143 3.47429181,0.301500441 L3.47429181,3.33415711 C3.47429181,3.60317741 3.24999675,3.82312445 2.98287854,3.82312445 L2.91092159,3.82312445 C2.64380338,3.82312445 2.41740227,3.60317741 2.41740227,3.33415711 L2.41740227,0.301500441 C2.41740227,0.129214475 2.28858179,0 2.11728917,0 L2.04463021,0 C1.87333758,0 1.7371459,0.12886143 1.7371459,0.301500441 L1.7371459,3.33415711 C1.7371459,3.60317741 1.51811599,3.82312445 1.25064677,3.82312445 L1.17904083,3.82312445 C0.911922622,3.82312445 0.70482703,3.60317741 0.70482703,3.33415711 L0.70482703,0.301500441 C0.70482703,0.129214475 0.556350021,0 0.385057397,0 L0.313100454,0 C0.142158838,0 0,0.12886143 0,0.301500441 L0,4.8886143 C0,5.45278023 0.457365349,5.89902913 1.01827849,5.89902913 L1.15376815,5.89902913 L0.867344418,15.1322154 C0.859973219,15.3627538 0.945970541,15.5809356 1.10567985,15.7465137 C1.26503816,15.9120918 1.48477009,16 1.71433029,16 L2.38967252,16 C2.6185307,16 2.83826263,15.9120918 2.99797195,15.7465137 C3.15768126,15.5805825 3.24332757,15.3599294 3.23665839,15.129391 L2.94988365,5.89867608 L3.14293886,5.89867608 C3.70420301,5.89867608 4.15384615,5.45207414 4.15384615,4.88826125 L4.15384615,0.301147396 C4.15349514,0.12886143 4.01976053,7.83917405e-17 3.8481169,7.83917405e-17 Z" id="Shape"></path>
            </g>
        </g>
    </g>
</svg>