<?xml version="1.0" encoding="UTF-8"?>
<svg width="24px" height="24px" viewBox="0 0 24 24" version="1.1" xmlns="http://www.w3.org/2000/svg" xmlns:xlink="http://www.w3.org/1999/xlink">
    <!-- Generator: Sketch 47.1 (45422) - http://www.bohemiancoding.com/sketch -->
    <title>Icons / Normal / Resa</title>
    <desc>Created with Sketch.</desc>
    <defs></defs>
    <g id="Symbols" stroke="none" stroke-width="1" fill="none" fill-rule="evenodd">
        <g id="Common-/-Nav-bar-/-Home-active" transform="translate(-20.000000, -12.000000)" fill-rule="nonzero" fill="#F48632">
            <g id="Icons-/-Normal-/-Resa" transform="translate(20.000000, 12.000000)">
                <path d="M21.9994976,9 C21.9998308,6.69005135 22,5.0040556 22,5.0040556 C22,5.00335865 20.8053179,5.0027601 19,5.0022535 L19,5.99707065 C19,6.55097325 18.5561352,7 18,7 C17.4477153,7 17,6.55146995 17,5.99707065 L17,5.00177465 C13.9456317,5.00114125 10.0534631,5.00068915 7,5.00039985 L7,5.99707065 C7,6.55097325 6.5561352,7 6,7 C5.44771525,7 5,6.55146995 5,5.99707065 L5,5.00022195 C3.1974467,5.00007185 2.00494659,5 2.00494659,5 C2.00392532,5 2.00305648,6.68796945 2.00234541,9 L21.9994976,9 Z M21.9991899,11 L2.00180121,11 C2.0006127,15.8919145 2,21.9959444 2,21.9959444 C2,21.9987956 21.9950534,22 21.9950534,22 C21.996996,22 21.9983871,15.8925957 21.9991899,11 Z M19,3 L21.9950534,3 C23.1023549,3 24,3.89562589 24,5.0040556 L24,21.9959444 C24,23.1027538 23.1029738,24 21.9950534,24 L2.00494659,24 C0.897645165,24 0,23.1043741 0,21.9959444 L0,5.0040556 C0,3.89724624 0.897026225,3 2.00494659,3 L5,3 L5,1.00292933 C5,0.449026756 5.4438648,0 6,0 C6.55228475,0 7,0.448530063 7,1.00292933 L7,3 L17,3 L17,1.00292933 C17,0.449026756 17.4438648,0 18,0 C18.5522847,0 19,0.448530063 19,1.00292933 L19,3 Z" id="Shape"></path>
            </g>
        </g>
    </g>
</svg>